<svg width="124" height="124" viewBox="0 0 124 124" fill="none" xmlns="http://www.w3.org/2000/svg">
<path opacity="0.3" d="M46.5 87.8333V15.5H31V87.8333H46.5Z" fill="#E7363D"/>
<path d="M66.7818 19.2605L66.9875 18.9856C67.8446 17.9856 69.3001 17.8018 70.371 18.5097L70.6301 18.7053L105.917 48.9493L70.6301 79.1934C69.9285 79.7948 68.9591 79.9756 68.0878 79.6675C66.8388 79.2259 66.1418 77.9217 66.4293 76.6607L66.5134 76.3708L73.4183 56.8333H64.5833C54.5962 56.8333 46.5 64.9295 46.5 74.9167V108.5H31V74.9167C31 56.3691 46.0358 41.3333 64.5833 41.3333H73.5139L66.5134 21.5278C66.2438 20.7655 66.3486 19.928 66.7818 19.2605L66.9875 18.9856L66.7818 19.2605Z" fill="#E7363D"/>
</svg>
